<?xml version="1.0" encoding="UTF-8" standalone="no"?><!DOCTYPE svg PUBLIC "-//W3C//DTD SVG 1.1//EN" "http://www.w3.org/Graphics/SVG/1.1/DTD/svg11.dtd"><svg width="100%" height="100%" viewBox="0 0 11812 11812" version="1.1" xmlns="http://www.w3.org/2000/svg" xmlns:xlink="http://www.w3.org/1999/xlink" xml:space="preserve" xmlns:serif="http://www.serif.com/" style="fill-rule:evenodd;clip-rule:evenodd;stroke-linejoin:round;stroke-miterlimit:2;"><path d="M3426.874,11258.013l1634.1,-975.494l-7.29,-2413.561l-1137.557,-680.772l240.955,-143.588l1146.961,687.772l8.165,2693.073l-1771.471,1060.696l-113.863,-228.127Z" style="fill:#e82221;"/><path d="M4668.055,6739.352l1105.103,713.626l0,3242.593l-1220.055,720.835l123.638,223.949l1232.558,-739.834l1208.727,732.163l150.494,-210.213l-1238.586,-727.386l-2.389,-3241.585l1099.684,-705.084l-134.442,-82.384l-0.002,-118.448l-1086.911,686.939l-1100.253,-696.941l0.043,119.014l-137.609,82.755Z" style="fill:#e82221;"/><path d="M7654.863,7042.48l-1153.6,696.587l0,2685.054l1759.784,1050.091l147.99,-211.589l-1654.228,-979.804l0,-2405.757l1138.012,-685.142l-237.958,-149.439Z" style="fill:#e82221;"/><path d="M5910.812,170.669l1357.709,820.125l0,1385.1l267.219,143.73l0,-638.254l814.35,-484.751l808.604,477.757l0,926.849l-542.254,330.847l650.944,367.873l333.236,-185.131l888.628,527.922l0,1000.901l-799.049,477.757l0,1325.776l-1341.303,809.799l-1222.234,-708.792l-133.925,-81.945l0,-1199.209l-1086.878,657.898l-1092.644,-663.825l-7.465,1195.886l-1342.559,803.389l-1340.848,-794.989l8.914,-1338.869l-809.481,-492.22l0,-989.106l907.458,-534.211l324.259,195.955l653.183,-370.915l-552.873,-335.923l0,-919.122l811.814,-487.555l807.148,487.555l0,627.523l280.339,-153.965l0,-1376.351l1357.709,-807.509Z" style="fill:#03625e;"/><path d="M5905.512,466.234l-970.629,591.597l970.629,669.979l975.857,-666.247l-975.857,-595.33Z" style="fill:#fff;"/><path d="M4807.316,1279.913l0,1063.755l979.775,582.266l0,-989.106l-979.775,-656.916Z" style="fill:#fff;"/><path d="M6027.836,1938.695l981.641,-658.782l0,1065.622l-979.775,580.4l-1.866,-987.24Z" style="fill:#fff;"/><path d="M3465.553,1682.084l-574.801,335.923l0,644.972l573.308,331.444l571.815,-334.43l0,-637.507l-570.322,-340.402Z" style="fill:#fff;"/><path d="M4948.332,5237.355l957.18,-564.471l960.267,563.602l-960.267,580.398l-957.18,-579.529Z" style="fill:#fff;"/><path d="M3464.749,4672.884l-1085.287,628.723l0,1220.515l1084.28,630.786l1102.198,-634.408l0,-1211.587l-1101.191,-634.029Z" style="fill:#fff;"/><path d="M8349.612,4672.884l1082.494,626.882l0,1216.782l-1083.906,636.359l-1101.962,-635.324l0,-1213.879l1103.375,-630.82Z" style="fill:#fff;"/><path d="M2221.434,3603.807l-657.848,373.247l0,723.166l671.845,394.242l207.619,-118.973l0,-1241.047l-221.616,-130.637Z" style="fill:#fff;"/><path d="M3344.214,3347.331l-654.765,354.304l0,1122.728l654.526,-372.65l0.239,-1104.382Z" style="fill:#fff;"/><path d="M3581.971,3347.331l983.969,570.318l0,1094.635l-984.015,-566.727l0.047,-1098.226Z" style="fill:#fff;"/><path d="M4803.259,3933.409l982.604,-586.078l0,1113.848l-981.425,564.073l-1.179,-1091.844Z" style="fill:#fff;"/><path d="M6026.443,3347.331l0,1114.614l982.491,550.339l2.446,-1081.756l-984.937,-583.197Z" style="fill:#fff;"/><path d="M7246.046,3924.701l988.449,-577.369l0,1112.634l-984.526,552.319l-3.923,-1087.584Z" style="fill:#fff;"/><path d="M8473.788,3347.331l0,1112.634l649.195,366.639l0,-1128.341l-649.195,-350.932Z" style="fill:#fff;"/><path d="M9594.394,3597.994l-232.475,134.663l0,1235.896l219.538,130.867l672.547,-406.28l0,-704.088l-659.61,-391.058Z" style="fill:#fff;"/><path d="M8361.42,1682.084l-582.266,345.402l0,625.189l572.935,341.747l571.069,-338.014l0,-628.922l-561.737,-345.402Z" style="fill:#fff;"/><path d="M4689.742,2564.196l-965.778,573.868l963.445,573.868l968.11,-569.202l-965.778,-578.533Z" style="fill:#fff;"/><path d="M7128.139,2564.196l-963.445,573.868l958.779,573.868l970.443,-573.868l-965.777,-573.868Z" style="fill:#fff;"/><path d="M4813.223,5461.097l-6.703,1076.485l1098.992,696.962l1087.229,-686.931l0,-1080.605l-1087.23,657.878l-1092.289,-663.789Z" style="fill:#fff;"/></svg>